<svg id="visual" viewBox="0 0 960 540" width="960" height="540" xmlns="http://www.w3.org/2000/svg" xmlns:xlink="http://www.w3.org/1999/xlink" version="1.1"><rect x="0" y="0" width="960" height="540" fill="#001122"></rect><defs><linearGradient id="grad1_0" x1="43.8%" y1="0%" x2="100%" y2="100%"><stop offset="14.444444444444446%" stop-color="#001122" stop-opacity="1"></stop><stop offset="85.55555555555554%" stop-color="#001122" stop-opacity="1"></stop></linearGradient></defs><defs><linearGradient id="grad2_0" x1="0%" y1="0%" x2="56.3%" y2="100%"><stop offset="14.444444444444446%" stop-color="#001122" stop-opacity="1"></stop><stop offset="85.55555555555554%" stop-color="#001122" stop-opacity="1"></stop></linearGradient></defs><g transform="translate(960, 0)"><path d="M0 405C-49.2 393.6 -98.4 382.2 -151.5 365.9C-204.7 349.5 -261.9 328.2 -286.4 286.4C-310.8 244.6 -302.6 182.4 -316.9 131.3C-331.2 80.1 -368.1 40.1 -405 0L0 0Z" fill="#5268f7"></path></g><g transform="translate(0, 540)"><path d="M0 -405C59.6 -406.3 119.1 -407.6 155 -374.2C190.8 -340.8 203 -272.7 230.5 -230.5C258 -188.3 301 -171.9 332.6 -137.8C364.2 -103.6 384.6 -51.8 405 0L0 0Z" fill="#5268f7"></path></g></svg>