<svg id="visual" viewBox="0 0 960 540" width="960" height="540" xmlns="http://www.w3.org/2000/svg" xmlns:xlink="http://www.w3.org/1999/xlink" version="1.1"><rect x="0" y="0" width="960" height="540" fill="#001122"></rect><defs><linearGradient id="grad1_0" x1="43.8%" y1="0%" x2="100%" y2="100%"><stop offset="14.444444444444446%" stop-color="#001122" stop-opacity="1"></stop><stop offset="85.55555555555554%" stop-color="#001122" stop-opacity="1"></stop></linearGradient></defs><defs><linearGradient id="grad2_0" x1="0%" y1="0%" x2="56.3%" y2="100%"><stop offset="14.444444444444446%" stop-color="#001122" stop-opacity="1"></stop><stop offset="85.55555555555554%" stop-color="#001122" stop-opacity="1"></stop></linearGradient></defs><g transform="translate(960, 0)"><path d="M0 405C-53.1 399.3 -106.2 393.5 -155 374.2C-203.8 354.8 -248.4 321.8 -282.1 282.1C-315.9 242.5 -338.9 196.2 -357.5 148.1C-376.2 100 -390.6 50 -405 0L0 0Z" fill="#FCAF3C"></path></g><g transform="translate(0, 540)"><path d="M0 -405C60.1 -405.1 120.3 -405.2 153.8 -371.4C187.4 -337.6 194.4 -269.9 232.6 -232.6C270.8 -195.4 340.2 -188.7 374.2 -155C408.1 -121.3 406.5 -60.6 405 0L0 0Z" fill="#FCAF3C"></path></g></svg>